<svg version="1.1" id="logo" xmlns="http://www.w3.org/2000/svg" xmlns:xlink="http://www.w3.org/1999/xlink" x="0px" y="0px"
viewBox="0 0 500 500" style="enable-background:new 0 0 500 500;" xml:space="preserve">
<g>
  <g>
    <g>
      <path d="M249.8,406.9c1.1,0.2,2.1,0.5,3.1,0.7c1,0.3,2,0.7,2.8,1.2c0.8,0.5,1.5,1.1,2,1.9c0.5,0.8,0.7,1.8,0.7,3
      c0,2.1-0.8,3.8-2.3,5c-1.6,1.2-3.8,1.8-6.6,1.8c-2.8,0-5-0.6-6.5-1.8c-1.6-1.2-2.3-2.9-2.3-5h2.3c0,1,0.2,1.8,0.7,2.4
      c0.4,0.6,1,1,1.7,1.4c0.7,0.3,1.4,0.5,2.2,0.6c0.8,0.1,1.4,0.2,2.1,0.2c0.6,0,1.3-0.1,2.1-0.2c0.8-0.1,1.5-0.3,2.1-0.6
      c0.7-0.3,1.2-0.8,1.7-1.4c0.5-0.6,0.7-1.4,0.7-2.4c0-0.7-0.1-1.2-0.3-1.7c-0.2-0.5-0.6-0.9-1.1-1.2c-0.5-0.3-1.2-0.6-2.1-0.9
      c-0.9-0.3-2-0.5-3.3-0.8c-1-0.2-2.1-0.5-3.1-0.7c-1-0.3-2-0.7-2.8-1.1c-0.8-0.5-1.5-1.1-2-1.9c-0.5-0.8-0.8-1.8-0.8-3.1
      c0-2.1,0.8-3.8,2.3-5c1.6-1.2,3.7-1.8,6.5-1.8c2.8,0,5,0.6,6.6,1.8c1.6,1.2,2.3,2.9,2.3,5h-2.3c0-1-0.2-1.8-0.7-2.4
      c-0.5-0.6-1-1-1.7-1.4c-0.7-0.3-1.4-0.5-2.1-0.6c-0.8-0.1-1.5-0.2-2.1-0.2c-0.6,0-1.3,0.1-2.1,0.2c-0.8,0.1-1.5,0.3-2.2,0.6
      c-0.7,0.3-1.2,0.8-1.7,1.4c-0.4,0.6-0.7,1.4-0.7,2.4c0,0.7,0.1,1.3,0.3,1.7c0.2,0.5,0.6,0.9,1.2,1.2c0.5,0.3,1.2,0.6,2.1,0.9
      C247.4,406.3,248.5,406.6,249.8,406.9z"/>
      <path d="M274.4,420.5c-2,0-3.7-0.3-5.3-0.9c-1.6-0.5-2.9-1.4-3.9-2.5c-1.1-1.1-1.9-2.4-2.5-3.9c-0.6-1.6-0.8-3.3-0.8-5.3
      c0-1.9,0.3-3.7,0.8-5.3c0.6-1.5,1.4-2.9,2.5-3.9c1.1-1.1,2.4-1.9,3.9-2.5c1.5-0.6,3.3-0.8,5.3-0.8c2,0,3.7,0.3,5.3,0.8
      c1.5,0.6,2.9,1.4,3.9,2.5c1.1,1.1,1.9,2.4,2.5,3.9c0.6,1.6,0.9,3.3,0.9,5.3c0,2-0.3,3.7-0.9,5.3c-0.6,1.5-1.4,2.8-2.5,3.9
      c-1.1,1.1-2.4,1.9-3.9,2.5C278.1,420.2,276.3,420.5,274.4,420.5z M274.4,397.7c-3.3,0-5.9,0.9-7.6,2.6c-1.7,1.7-2.6,4.3-2.6,7.6
      c0,3.3,0.9,5.9,2.6,7.6c1.7,1.8,4.3,2.6,7.6,2.6c3.3,0,5.9-0.9,7.6-2.6c1.8-1.8,2.6-4.3,2.6-7.6c0-3.3-0.9-5.8-2.6-7.6
      C280.3,398.6,277.7,397.7,274.4,397.7z"/>
      <path d="M294,397.9v7.7h10.8l-0.7,2.3H294v12.4h-2.3v-23.5c0-0.3,0.1-0.6,0.4-0.8c0.2-0.2,0.5-0.3,0.8-0.3h14.4v2.3H294z"/>
      <path d="M328.4,395.7v2.3h-7.8v22.4h-2.3v-22.4h-7.8v-2.3H328.4z"/>
      <path d="M366.7,395.7l-10.7,24.2c-0.2,0.4-0.6,0.7-1.1,0.7c-0.5,0-0.8-0.2-1-0.7l-4.6-10.5l-4.6,10.5c-0.2,0.4-0.6,0.7-1.1,0.7
      c-0.2,0-0.5-0.1-0.6-0.2c-0.2-0.1-0.3-0.3-0.4-0.5l-10.7-24.2h2.6l9.2,20.8l4.4-10l-2.1-4.6h2.6l6.4,14.6l9.2-20.8H366.7z"/>
      <path d="M383.8,413.6h-14.3l-3.2,6.6h-2.6l11.9-24.2c0.2-0.4,0.6-0.6,1-0.6c0.5,0,0.8,0.2,1,0.6l12,24.2h-2.5L383.8,413.6z
      M382.6,411.3l-6-12.2l-6,12.2H382.6z"/>
      <path d="M412.2,420.3l-8-9.9h-7.6v9.9h-2.3v-23.5c0-0.3,0.1-0.6,0.3-0.8c0.2-0.2,0.5-0.4,0.8-0.4H406h0.1c1,0,1.9,0.2,2.8,0.6
      c0.9,0.4,1.6,0.9,2.3,1.6c0.6,0.7,1.2,1.4,1.5,2.3c0.4,0.9,0.6,1.8,0.6,2.8c0,0.9-0.2,1.8-0.5,2.6c-0.3,0.8-0.8,1.5-1.3,2.2
      c-0.6,0.6-1.2,1.2-2,1.6c-0.7,0.4-1.6,0.7-2.4,0.8l8.1,10H412.2z M396.6,408h9.3c0.7,0,1.3-0.1,1.9-0.4c0.6-0.3,1.2-0.6,1.6-1.1
      c0.5-0.5,0.8-1,1.1-1.6c0.3-0.6,0.4-1.3,0.4-2c0-0.7-0.1-1.4-0.4-2c-0.3-0.6-0.6-1.1-1.1-1.6c-0.5-0.4-1-0.8-1.6-1.1
      c-0.6-0.3-1.3-0.4-1.9-0.4h-9.3V408z"/>
      <path d="M420.3,397.9v7.7h10.8l-0.7,2.3h-10.1V418h13.2v2.3h-14.4c-0.3,0-0.6-0.1-0.8-0.3c-0.2-0.2-0.3-0.5-0.3-0.8v-22.4
      c0-0.3,0.1-0.6,0.3-0.8c0.2-0.2,0.5-0.3,0.8-0.3h14.4v2.3H420.3z"/>
      <path d="M247.8,464.6h-6c-0.3,0-0.6-0.1-0.8-0.4c-0.2-0.2-0.3-0.5-0.3-0.8v-22.4c0-0.3,0.1-0.6,0.3-0.8c0.2-0.2,0.5-0.3,0.8-0.3
      h6.2c1.9,0,3.6,0.3,5.2,0.8c1.5,0.5,2.8,1.4,3.9,2.4c1.1,1.1,1.9,2.4,2.4,3.9c0.5,1.5,0.8,3.2,0.8,5.2c0,1.9-0.3,3.6-0.9,5.1
      c-0.6,1.5-1.4,2.8-2.5,3.9c-1.1,1.1-2.4,1.9-3.9,2.5C251.4,464.3,249.7,464.6,247.8,464.6z M243,462.3h4.8c3.3,0,5.8-0.9,7.6-2.6
      c1.8-1.7,2.6-4.2,2.6-7.4c0-3.3-0.9-5.8-2.6-7.5c-1.7-1.7-4.2-2.6-7.4-2.6h-5V462.3z"/>
      <path d="M266.8,442.2v7.7h10.8l-0.7,2.3h-10.1v10.1H280v2.3h-14.4c-0.3,0-0.6-0.1-0.8-0.4c-0.2-0.2-0.3-0.5-0.3-0.8v-22.4
      c0-0.3,0.1-0.6,0.3-0.8c0.2-0.2,0.5-0.3,0.8-0.3H280v2.3H266.8z"/>
      <path d="M295,464.8c-0.2,0-0.4-0.1-0.6-0.2c-0.2-0.1-0.3-0.3-0.4-0.5l-10.7-24.2h2.6l9.2,20.8l9.3-20.8h2.5l-10.7,24.2
      C295.9,464.6,295.5,464.8,295,464.8z"/>
      <path d="M312.9,442.2v7.7h10.8l-0.7,2.3h-10.1v10.1h13.2v2.3h-14.4c-0.3,0-0.6-0.1-0.8-0.4c-0.2-0.2-0.3-0.5-0.3-0.8v-22.4
      c0-0.3,0.1-0.6,0.3-0.8c0.2-0.2,0.5-0.3,0.8-0.3h14.4v2.3H312.9z"/>
      <path d="M347.6,462.3l-0.7,2.3h-14.4c-0.3,0-0.6-0.1-0.8-0.4c-0.2-0.2-0.3-0.5-0.3-0.8v-23.5h2.3v22.3H347.6z"/>
      <path d="M363.8,464.8c-2,0-3.7-0.3-5.3-0.9c-1.6-0.6-2.9-1.4-3.9-2.5c-1.1-1.1-1.9-2.4-2.5-3.9c-0.6-1.6-0.9-3.3-0.9-5.3
      c0-1.9,0.3-3.7,0.9-5.3c0.6-1.6,1.4-2.9,2.5-4c1.1-1.1,2.4-1.9,3.9-2.5c1.5-0.6,3.3-0.8,5.3-0.8c2,0,3.7,0.3,5.3,0.8
      c1.6,0.6,2.9,1.4,3.9,2.5c1.1,1.1,1.9,2.4,2.5,4c0.6,1.6,0.9,3.3,0.9,5.3c0,2-0.3,3.7-0.9,5.3c-0.6,1.5-1.4,2.8-2.5,3.9
      c-1.1,1.1-2.4,1.9-3.9,2.5C367.5,464.5,365.8,464.8,363.8,464.8z M363.8,442c-3.3,0-5.9,0.9-7.6,2.6c-1.7,1.7-2.6,4.3-2.6,7.6
      c0,3.3,0.9,5.9,2.6,7.6c1.7,1.8,4.3,2.6,7.6,2.6c3.3,0,5.9-0.9,7.6-2.6c1.7-1.8,2.6-4.3,2.6-7.6c0-3.3-0.9-5.8-2.6-7.6
      C369.7,442.9,367.2,442,363.8,442z"/>
      <path d="M392.7,439.9c1,0,1.9,0.2,2.8,0.6c0.9,0.4,1.6,0.9,2.3,1.6c0.7,0.7,1.2,1.4,1.5,2.3c0.4,0.9,0.6,1.8,0.6,2.8
      c0,1-0.2,2-0.6,2.8c-0.4,0.9-0.9,1.7-1.6,2.3c-0.7,0.7-1.5,1.2-2.3,1.6c-0.9,0.4-1.8,0.6-2.8,0.6h-9.3v10H381v-23.5
      c0-0.3,0.1-0.6,0.3-0.8c0.2-0.2,0.5-0.3,0.8-0.3H392.7L392.7,439.9z M392.6,452.3c0.7,0,1.3-0.1,1.9-0.4c0.6-0.3,1.2-0.6,1.6-1.1
      c0.5-0.5,0.8-1,1.1-1.6c0.3-0.6,0.4-1.3,0.4-2c0-0.7-0.1-1.3-0.4-1.9c-0.3-0.6-0.6-1.1-1.1-1.6c-0.5-0.5-1-0.8-1.6-1.1
      c-0.6-0.3-1.3-0.4-1.9-0.4h-9.3v10.1H392.6z"/>
      <path d="M429.9,464.6h-2.3V445l-9,14.9c-0.1,0.2-0.3,0.3-0.4,0.4c-0.2,0.1-0.4,0.2-0.6,0.2c-0.4,0-0.8-0.2-1-0.6l-9-14.9v19.6
      h-2.3v-23.7c0-0.6,0.3-0.9,0.8-1.1c0.2-0.1,0.5-0.1,0.7,0c0.3,0.1,0.4,0.3,0.6,0.5l10.1,16.8l10.2-16.8c0.1-0.2,0.3-0.4,0.6-0.5
      c0.2-0.1,0.5-0.1,0.7,0c0.2,0.1,0.4,0.2,0.6,0.4c0.2,0.2,0.3,0.4,0.3,0.7V464.6z"/>
      <path d="M437.8,442.2v7.7h10.8l-0.7,2.3h-10.1v10.1H451v2.3h-14.4c-0.3,0-0.6-0.1-0.8-0.4c-0.2-0.2-0.4-0.5-0.4-0.8v-22.4
      c0-0.3,0.1-0.6,0.4-0.8c0.2-0.2,0.5-0.3,0.8-0.3H451v2.3H437.8z"/>
      <path d="M473.3,464.8c-0.4,0-0.7-0.2-0.9-0.5l-13.8-19.8v20.1h-2.3v-23.7c0-0.2,0.1-0.5,0.2-0.7c0.1-0.2,0.3-0.3,0.6-0.4
      c0.2-0.1,0.5-0.1,0.7,0c0.2,0.1,0.4,0.2,0.6,0.4l13.9,19.8v-20.1h2.3v23.7c0,0.3-0.1,0.5-0.2,0.7c-0.1,0.2-0.3,0.4-0.6,0.4
      C473.6,464.8,473.4,464.8,473.3,464.8z"/>
      <path d="M497,439.9v2.3h-7.8v22.4h-2.3v-22.4h-7.8v-2.3H497z"/>
    </g>
    <path id="ruby" d="M209.4,190.2l-1.1-2l-7.6-14.4l-0.9-1.6h-2.1h-17.2h-3.2h-1.5h-3.2h-17.1h-2.1l-0.9,1.6l-7.6,14.4l-1.1,2l1.4,1.4
    l31.4,31.3l31.4-31.3L209.4,190.2z M204.5,188.2h-9.9h-0.1v0l4.5-10.4L204.5,188.2z M176.6,176.3l3.2,3.4l8,8.5h-22.5l9.8-10.3
    L176.6,176.3z M176.6,217l-12.5-25.4h25l-7.8,15.8L176.6,217z M196.2,175.5l-4.9,11.3l-7.4-7.8l-3.4-3.6H196.2z M172.6,175.5
    l-2.3,2.4l-8.4,8.9l-4.9-11.3H172.6z M154.2,177.7l4.5,10.4l0,0h-0.1h-9.9L154.2,177.7z M149.9,191.6h7.5h2.8l0.6,1.3l0.1-0.1
    l9.5,19.5L149.9,191.6z M182.7,212.3l4.5-9.2l5.1-10.3l0.1,0.1l0.6-1.3h2.8h7.5L182.7,212.3z"/>
    <g>
      <path id="bottle" d="M329.7,223.7h-31.5c-1.5,0-4.2-0.6-5.7-4.5c-1.2-3,1-6.5,1.5-7.2l11.7-18.8v-21.9h16.5v21.9L334,212
      c0.4,0.6,2.6,4.1,1.4,7.2C333.9,223.1,331.2,223.7,329.7,223.7z M310.3,176.5v18l-10.9,18.9c-0.5,0.9-1.2,2.6-0.9,3.3
      c0.6,1.8,1.3,1.8,1.6,1.8h27.6c0.2,0,1,0,1.6-1.8c0.2-0.7-0.4-2.4-0.9-3.3l-10.9-18.9v-18H310.3z"/>
    </g>
    <g>
      <path id="buble" d="M314,168.1c-3.7,0-6.7-3-6.7-6.7c0-3.7,3-6.7,6.7-6.7c3.7,0,6.7,3,6.7,6.7C320.6,165.1,317.7,168.1,314,168.1z
      M314,158.5c-1.6,0-3,1.3-3,2.9c0,1.7,1.3,3,3,3c1.6,0,3-1.3,3-3C316.9,159.8,315.6,158.5,314,158.5z"/>
    </g>
    <g>
      <path id="buble2" d="M323.4,156.2c-4.5,0-8.1-3.6-8.1-8.1c0-4.5,3.6-8.1,8.1-8.1c4.5,0,8.1,3.6,8.1,8.1C331.5,152.5,327.9,156.2,323.4,156.2z
      M323.4,144.1c-2.2,0-4,1.8-4,4c0,2.2,1.8,4,4,4c2.2,0,4-1.8,4-4C327.4,145.9,325.6,144.1,323.4,144.1z"/>
    </g>
      <path id="inneredge" d="M353.1,104.8l-99.2-57.3c-6.1-3.5-16.6-3.5-22.7,0l-99.2,57.3c-6.4,3.7-11.3,12.3-11.3,19.7v114.6c0,7.4,5,16,11.3,19.7
      l99.2,57.3c3.1,1.8,7.1,2.8,11.4,2.8c4.2,0,8.3-1,11.4-2.8l99.2-57.3c6.4-3.7,11.4-12.3,11.4-19.7V124.5
      C364.4,117.1,359.5,108.5,353.1,104.8z M358.7,239.1c0,5.3-3.9,12.1-8.5,14.7L251,311.1c-4.4,2.5-12.6,2.5-17,0l-99.2-57.3
      c-4.6-2.6-8.5-9.4-8.5-14.7V124.5c0-5.3,3.9-12.1,8.5-14.7L234,52.4c2.2-1.2,5.3-2,8.5-2c3.2,0,6.3,0.7,8.5,2l99.2,57.3
      c4.6,2.6,8.5,9.4,8.5,14.7V239.1z"/>
    <g>
      <path id="outeredge" d="M242.5,332c-4.8,0-9.5-1.1-13.2-3.2l-107.6-62.1c-7.4-4.3-13.1-14.3-13.1-22.8V119.7c0-8.5,5.8-18.5,13.1-22.8
      l107.6-62.1c3.5-2,8.2-3.1,13.2-3.1c5,0,9.7,1.1,13.1,3.1l107.6,62.1c7.4,4.2,13.2,14.2,13.2,22.8v124.2
      c0,8.5-5.8,18.5-13.2,22.8l-107.6,62.1C252,330.8,247.3,332,242.5,332z M242.5,35c-4.4,0-8.6,1-11.5,2.7L123.4,99.8
      c-6.4,3.7-11.5,12.4-11.5,19.9v124.2c0,7.4,5,16.2,11.5,19.9L231,325.9c6.3,3.6,16.8,3.6,23,0l107.5-62.1
      c6.4-3.7,11.5-12.5,11.5-19.9V119.7c0-7.4-5-16.2-11.5-19.9L254,37.7C251,36,246.9,35,242.5,35z"/>
    </g>
    <path id="rightcloud" d="M337.6,99.7c-9,5.6-16.1,14.4-19.4,25.2c-20.6-4.8-41.5,5.4-50.3,24.7c-23.4,8.8-32.4,32.2-32.4,52.4
    c0,0,5.2-38.7,34.9-49.2l0.6-0.3l0.3-0.6c8.1-18.3,28-27.9,47.3-22.8l0.5-1.9l0,0l-0.1,2l1.6,0.5l0.8-1.5l0.2-0.4
    c3-11.3,10.4-20.3,19.9-25.7C340,101.5,338.7,100.7,337.6,99.7z"/>
    <path id="leftcloud" d="M255.6,158.7c0,0-0.1,0-0.1,0c-4.6-6.7-11-11.8-18.6-14.7c-5-1.9-10.1-2.8-15.5-2.7c-5.9-14.5-17.6-26.1-32.2-31.7
    c-24.3-9.5-51.6-1.3-66.9,19.4c0.5,1.9,0.7,3.8,0.8,5.7c13.6-21.7,40.7-30.7,64.6-21.4c14,5.4,25,16.7,30.4,30.8l0.5,1.4l1.5-0.1
    c5.2-0.3,10.4,0.5,15.3,2.4c6.7,2.6,12.2,7.1,16.4,12.9C253,160,254.4,159.3,255.6,158.7z"/>
    <path id="elixir" d="M301.1,215.4c0.5,1.5,1.1,1.5,1.3,1.5h23c0.2,0,0.8,0,1.4-1.5c0.2-0.6-0.3-2-0.8-2.7l-6.2-10.7H308l-6.1,10.7
    C301.4,213.5,300.9,214.9,301.1,215.4z"/>
    <polygon points="42.2,428.3 23.6,394.5 3,394.5 42.2,465.7 80.9,394.5 60.5,394.5     "/>
    <path d="M197,397.3c-7.4-8.4-16.3-12.5-26.7-12.5c-10.4,0-19.3,4.2-26.7,12.5c-7.4,8.3-11.1,18.3-11.1,30c0,2.9,0.2,5.8,0.7,8.5
    h-8.9v-66.1l-18.4-0.1l-47.9,83.3h33.1h16.1v17.1h17v-17.1h15.8c1.1,1.6,2.2,3.1,3.5,4.5c7.4,8.3,16.3,12.5,26.7,12.5
    c10.4,0,19.3-4.2,26.7-12.5c7.4-8.3,11.1-18.3,11.1-30C208.1,415.6,204.4,405.6,197,397.3z M91.2,435.8h-2.6l18.8-34.7l0,34.7
    H91.2z M184.6,445.4c-4,4.9-8.7,7.4-14.2,7.5v0.1c-5.5,0-10.3-2.5-14.2-7.5c-4-5-6-11-6-18c0-7,1.9-13.1,6-18
    c4-4.9,8.7-7.4,14.2-7.5v-0.1c5.5,0,10.3,2.5,14.2,7.5c4,5,5.9,11,5.9,18C190.5,434.4,188.6,440.4,184.6,445.4z"/>
    <rect x="222.2" y="389.5" width="2" height="86.8"/>
  </g>
  <path d="M219.1,232v46.7h46.7V232H219.1z M243.6,265.9c0,6.6-4.5,7.6-7.1,7.6c-2,0-3.7-0.6-5-1.4v-3.9c1.1,0.9,2.6,1.7,4.5,1.7
  c2.3,0,3.6-0.6,3.6-3.8v-14.8h4V265.9z M254.4,273.5c-3.1,0-5.5-0.8-7.3-1.9v-4c1.6,1.2,3.6,2.1,6.3,2.1c2.3,0,4.6-0.5,4.6-2.5
  c0-4.9-11.2-2.1-11.2-9.8c0-4.5,3.7-6.4,7.9-6.4c2.2,0,4.2,0.6,5.9,1.5v3.9c-1.4-0.9-3.2-1.7-5.5-1.7c-2.1,0-4.4,0.6-4.4,2.6
  c0,4,11.2,1.2,11.2,10.2C262,271.1,258.5,273.5,254.4,273.5z"/>
</g>
</svg>
